<svg width="170" height="170" viewBox="0 0 170 170" fill="none" xmlns="http://www.w3.org/2000/svg">
<rect width="170" height="170" rx="16" fill="white"/>
<path d="M53.0967 114.526C47.8806 113.579 44.6956 112.808 40.5392 109.301C36.8111 106.194 33.4394 101.247 32.0844 96.5796C30.6714 91.6565 31.2545 86.8468 31.0677 81.8768C30.728 72.8432 31.4922 65.531 37.4491 58.3444C42.4616 52.2971 48.9858 48.9782 56.7942 48.2201C60.0009 47.9087 63.7792 48.0168 67.0984 48.0237L80.6761 48.0343L97.362 48.0254C102.659 48.0446 107.713 47.8273 112.913 48.9527C117.43 49.9304 122.331 51.8815 125.887 54.9101C130.869 59.1529 134.654 65.1968 135.986 71.6198C136.378 73.5094 136.386 76.001 136.543 77.9852C136.518 79.0527 136.547 79.9701 136.593 81.0374C136.504 89.3415 136.254 96.7082 130.87 103.599C122.694 114.062 112.746 115.222 100.34 115.191L89.2258 115.178C87.3467 115.17 81.6459 114.917 80.2547 115.67C72.8498 119.684 66.6641 125.678 59.4044 129.946C56.6589 131.56 55.8158 130.714 53.5891 128.887C52.7916 126.729 52.8345 116.929 53.0967 114.526Z" fill="#4DE650"/>
</svg>
